# xmcd
#
# Track frame offsets:
#	150
#	11175
#	25075
#	36000
#	49050
#	57825
#	70800
#	82625
#	95737
#	108650
#	118075
#	130350
#	142000
#
# Disc length: 2048 seconds
#
# Revision: 0
# Processed by: cddbd v1.4PL0 Copyright (c) Steve Scherf et al.
# Submitted via: audiograbber 1.81.03
#
DISCID=b207fe0d
DTITLE=Carl Perkins - Rare And Unissued Sun Masters
DYEAR=1900
DGENRE=
TTITLE0=Honky Tonk Gal
TTITLE1=Turn Around [Alternate Version][Alternate Take]
TTITLE2=You Can't Make Love to Somebody
TTITLE3=Let the Jukebox Keep on Playing [Alternate Version]
TTITLE4=Everybody's Trying to Be My Baby [Alternate Version]
TTITLE5=What You Doin' When You Cryin'?
TTITLE6=You Can't Make Love to Somebody
TTITLE7=Her Love Rubbed Off
TTITLE8=That's Right
TTITLE9=Caldonia
TTITLE10=Dixie Fried
TTITLE11=I'm Sorry I'm Not Sorry
TTITLE12=Right String Baby, Wrong Yo-Yo
EXTD=
EXTT0=
EXTT1=
EXTT2=
EXTT3=
EXTT4=
EXTT5=
EXTT6=
EXTT7=
EXTT8=
EXTT9=
EXTT10=
EXTT11=
EXTT12=
PLAYORDER=
